PathFileType	4	(X/Y/Z)	C:\Users\gl24\Desktop\Patient 3 Collaboration with Marleny\nms_results\Right\Marker Files\Patient3_NormalGait_1pt0_02_Right_01.trc.trc
DataRate	CameraRate	NumFrames	NumMarkers	Units	OrigDataRate	OrigDataStartFrame	OrigNumFrames
80.459770114943	80.459770114943	7	33	mm	80.459770114943	53	       141
Frame#	Time	L.Toe			L.Midfoot.Superior			Neck			R.Toe			R.Heel			L.Heel			R.Elbow			R.Shoulder			L.Shank.Inferior			L.Shoulder			L.Shank.Superior			R.Shank.Lateral			L.Patella			L.Thigh.Inferior			R.Wrist			R.Midfoot.Superior			L.Shank.Lateral			Sternum			L.Elbow			R.Midfoot.Lateral			L.Thigh.Superior			L.Wrist			R.Thigh.Superior			L.Thigh.Lateral			R.Shank.Inferior			L.Midfoot.Lateral			R.Shank.Superior			R.Thigh.Lateral			L.Asis			R.Thigh.Inferior			R.Patella			Sacral			R.Asis			
		X1	Y1	Z1	X2	Y2	Z2	X3	Y3	Z3	X4	Y4	Z4	X5	Y5	Z5	X6	Y6	Z6	X7	Y7	Z7	X8	Y8	Z8	X9	Y9	Z9	X10	Y10	Z10	X11	Y11	Z11	X12	Y12	Z12	X13	Y13	Z13	X14	Y14	Z14	X15	Y15	Z15	X16	Y16	Z16	X17	Y17	Z17	X18	Y18	Z18	X19	Y19	Z19	X20	Y20	Z20	X21	Y21	Z21	X22	Y22	Z22	X23	Y23	Z23	X24	Y24	Z24	X25	Y25	Z25	X26	Y26	Z26	X27	Y27	Z27	X28	Y28	Z28	X29	Y29	Z29	X30	Y30	Z30	X31	Y31	Z31	X32	Y32	Z32	X33	Y33	Z33	

53	1.036285714286	642.128356793500	51.544950510009	392.967045187210	561.609595761291	146.301522880330	408.436845992530	465.225311930874	1469.494786146082	516.894145114382	688.728238499294	37.945931194426	555.390656232758	391.294942215367	43.614409898319	531.939603271118	385.159298539791	182.295714183407	443.482010714023	538.686975869464	1084.182376522648	792.319245568944	531.150627536724	1430.658215131329	675.059104506999	603.917768916647	292.206616492654	405.899852594438	517.755775232907	1436.908614958814	362.401310291567	702.156953802158	416.850596991543	390.566020710825	495.672393668837	347.995783079348	654.764929831048	790.074743820766	520.781940091518	405.364825541064	754.936967739369	660.309071239465	385.712484847127	719.465651585567	903.248822148669	806.143761027971	566.450920862825	90.529401775856	550.626090394404	592.581953196142	411.223380383627	344.789848503434	619.686282086295	1377.636083794288	509.531367121858	442.091043520823	1103.534844153516	263.846133037764	475.543439411915	33.040361075739	593.922911039914	708.709670195719	778.470156396653	378.879553188925	530.264055407832	860.510088790074	242.543055146264	652.556908226804	718.497706475620	632.561101078266	649.023478616172	674.703421312971	336.237730604093	541.051215968826	214.445614947646	576.710697587557	448.909841012228	139.253359772980	377.000530119583	583.488675494017	384.844634067932	608.456941186463	561.519533356389	664.168382416273	677.387990764139	600.280048441701	966.338629960802	377.709745403368	640.724793116035	605.776685453702	612.657640562833	624.912980967999	492.598345957342	600.302907270826	431.321018135862	992.775613271810	515.331178660668	608.096130793526	982.895193762718	636.475062968967	
54	1.048714285714	677.014250085889	51.314494346098	391.433894916646	589.705679162646	139.972901791158	407.237514657979	465.071138148228	1469.971705298771	517.390801021282	676.321122918916	37.482574085558	555.377677321028	379.072290342534	44.587283069884	531.776956037486	410.966205493040	163.000223421755	442.383909145668	542.855046763594	1085.145919714812	793.732580449702	531.622468634457	1431.206958498272	675.274911275757	621.957858260161	287.992228700223	405.369681120955	516.838730702739	1437.006095082033	362.617157959862	711.497159508102	418.832818272471	390.250870342444	485.302028984541	348.615655353437	654.722807453416	793.370032733759	526.191421982887	405.377054300124	756.645300638627	664.704139204614	386.114836162107	728.558748727721	909.123620074558	805.836662580573	554.353255633769	90.577278425213	550.666313519962	603.092611909723	405.838428172506	343.682985147012	619.298765736640	1377.707921239900	509.430653821806	434.712623523169	1104.631134706718	266.016196056301	463.221461408985	33.450366553950	593.762233702523	708.492119821530	781.679033775845	379.242960291737	518.535887747115	860.309074597991	243.484745257188	647.343692231729	717.510674448014	632.519701619921	651.052818296323	677.379975212944	335.456334040072	529.873050374771	214.593113053284	576.892775503880	477.742591244050	124.890807226149	375.748993789016	573.597448293333	384.674288142781	608.805237386077	555.322164738859	664.201826952381	677.214544699165	598.795216827699	966.717545658099	377.932766228784	633.939267394862	604.784599070900	612.861911905462	615.966002395144	491.637490169343	600.883932687347	429.497774258186	993.371284845569	515.122634334991	605.898327422274	982.590566265864	636.776850445051	
55	1.061142857143	712.116343291296	51.581562872226	389.927574911860	618.534625861549	133.715415824728	405.891720340740	464.973512930801	1470.290839476026	517.794440481124	663.921129758168	37.014407531275	555.369573060090	366.849677332908	45.637503781995	531.640738035392	438.461787965271	143.720679926039	440.995712898010	546.842412070563	1085.908637777604	794.961887264722	532.030604239542	1431.537802721517	675.434170943642	639.996745897687	283.554171658825	404.659802383781	516.074188270300	1436.982682702369	362.783151047063	719.712600000333	420.318963298174	389.836431694307	475.008075915623	349.264461897193	654.698607715716	794.992814905022	530.589246499464	405.428175424021	757.517104256946	668.216606837884	386.720290999859	737.242624653699	914.848604956471	805.408638636111	542.286136562839	90.636975939829	550.734735679314	613.120998013118	399.725285119477	342.478346467341	618.938807559423	1377.576842150987	509.305563420829	427.853512901211	1105.709579300644	268.118043491249	450.899672768874	33.888828689598	593.632008506524	707.816769654620	784.215792996412	379.822094257049	507.147296821857	860.106889750149	244.426327718901	642.174306399703	716.499216436251	632.428404515311	652.347208757025	679.591085524799	334.716618383142	518.724171006304	214.770309624769	577.087920681765	507.892182115522	110.677154371564	374.295692307597	563.769057614443	384.513629905311	609.123489293450	549.219096844192	664.182855455409	677.063209464793	597.246671233660	966.889345880717	378.021503921997	627.282591981281	603.789816568655	613.024997920804	607.069039170545	490.626923364148	601.364328793652	427.622212506257	993.779898006055	514.855318086640	603.639888093394	982.163638043975	636.952711553129	
56	1.073571428571	747.267942896204	52.699109050730	388.553549020088	647.972008790621	127.928501748161	404.477647223828	464.929592306509	1470.457816354726	518.110314618306	651.529805450677	36.545749437074	555.366883219696	354.619124753023	46.759448876265	531.534591140832	467.536697566124	124.970236136038	439.355463195799	550.634075846856	1086.469881835066	795.997762777132	532.388899931093	1431.656390125758	675.532888136323	657.910751208988	279.151677529321	403.785788345537	515.450934034082	1436.855817308668	362.895833540340	726.710813395019	421.347833107401	389.309102508182	464.776193656949	349.953870941654	654.686810028549	794.889471895781	533.863253865004	405.517525925722	757.504834687471	670.669592299608	387.453471696162	745.488408914264	920.392544190437	804.859476681614	530.242869603534	90.704265427131	550.828942644820	622.619604197057	393.030079956361	341.183533014027	618.607214481261	1377.257477340802	509.145204995203	421.573697488571	1106.763810894825	270.099034372173	438.576797838106	34.357691308818	593.532796578221	706.700469658358	785.967474300741	380.566742985678	496.206676102741	859.907457180056	245.377726184792	637.069563612244	715.455905524240	632.298629220170	652.820468564734	681.247039117980	334.018532170515	507.604171485008	214.980179140509	577.291363692477	539.251913474030	97.090939905704	372.692510281379	553.988611904456	384.375009087459	609.410913477007	543.232942197537	664.129450575851	676.940323241635	595.683609401270	966.885242339007	377.980470072081	620.743241865799	602.799926750560	613.130514052818	598.208043654361	489.585472425567	601.727049190909	425.748981940708	993.989622327856	514.512855001323	601.359833566391	981.645403277878	637.007575626082	
57	1.086000000000	782.226885355278	55.071279219726	387.422544646087	677.800945589971	123.053461475755	403.082151317972	464.934022677079	1470.473984022851	518.340350533117	639.147092975301	36.081015146936	555.369759731500	342.379114892784	47.948686824086	531.459760369512	497.974202109909	107.271512556701	437.524975977361	554.218143721596	1086.827588991404	796.835686248815	532.707388605352	1431.565724455821	675.565000742324	675.540219853686	275.071031670344	402.765653283125	514.960546471727	1436.635616685971	362.949688433663	732.436647265214	421.990023645093	388.653948049168	454.591318689117	350.697031521616	654.680477323727	793.079742012133	535.970055940570	405.651300536519	756.552369894097	671.896519803681	388.225385203675	753.274090718867	925.721756011190	804.191466426363	518.215615649506	90.774209977985	550.944664970569	631.538683862927	385.945056445040	339.814079368684	618.305226169167	1376.762252183585	508.942009616160	415.907715644545	1107.775344450589	271.911587529047	426.252520369566	34.860742662031	593.462987871185	705.156017373085	786.816089363617	381.397573207701	485.817335866997	859.709465644481	246.337803053254	632.041981032512	714.373570536289	632.142484842670	652.370054707515	682.254531658626	333.337758714695	496.511371225677	215.227903115025	577.499267956071	571.620072093791	84.630560977455	371.012085431852	544.241099468170	384.271992477368	609.669042867936	537.371134995049	664.060848660834	676.849576968300	594.161505943363	966.727464081327	377.814445847307	614.290977125388	601.821749281589	613.164882313963	589.371803788632	488.537371167516	601.963230062105	423.926224872452	993.992602307170	514.069199393152	599.105410591667	981.061697990210	636.947806552650	
58	1.098428571429	816.657499795894	59.106422191424	386.633142797449	707.696132528050	119.527866923758	401.789919625699	464.978286904680	1470.336313732962	518.482517153200	626.770743564921	35.623851463644	555.378035530205	330.133573104758	49.203317871783	531.414891719872	529.433486940440	91.118733648643	435.587863744628	557.586168302362	1086.978041874363	797.475388064233	532.990558982694	1431.266264859361	675.523018228156	692.692530371333	271.597931507547	401.617036316063	514.595828509312	1436.323849085740	362.937169113382	736.886874289994	422.343795165480	387.854968844317	444.443591127190	351.506230331601	654.671600532487	789.676483099585	536.954677749796	405.838256210828	754.602019843003	671.766600515357	388.945612264882	760.584336637683	930.799636333612	803.409272769420	506.198555524541	90.843238491820	551.077558917398	639.829720960806	378.702051114216	338.399126071446	618.033339580095	1376.100965222021	508.691222758227	410.867897715522	1108.715501397272	273.514457843550	413.927367906087	35.403142197859	593.419266321342	703.191498826184	786.652845164276	382.218554247069	476.070114030567	859.503531843877	247.294102851914	627.097188405026	713.244501217202	631.972063205926	650.891255755851	682.528762674930	332.624966705137	485.445232908066	215.519735360882	577.709164322345	604.678136614100	73.769094944525	369.344189138443	534.517706567802	384.216419032701	609.900682701987	531.628739021418	663.992770237962	676.789177408268	592.734485060613	966.428962473074	377.527601343496	607.886326902281	600.859082809229	613.120595267034	580.557855070060	487.506781748128	602.072370348720	422.195522786594	993.782787745378	513.498485176980	596.928418027518	980.429292669817	636.779541611498	
59	1.110857142857	850.122235944015	65.142875965720	386.248570841726	737.219790365910	117.722967874304	400.670454901213	465.050583563001	1470.038581042085	518.530794637158	614.396282063742	35.176725038679	555.390954392989	317.890041507528	50.525179516606	531.396489122023	561.441332117068	76.934338708706	433.648619040938	560.733144009574	1086.916742473605	797.919659649457	533.236410889219	1430.757394980571	675.399022361979	709.150434381800	268.982632457308	400.355999118599	514.348970297400	1435.914500082765	362.849097460888	740.121007205021	422.525698381710	386.897086560404	434.334200759808	352.390973655775	654.651666525216	784.897574948873	536.960609324454	406.082135967620	751.608529729166	670.215604855887	389.533001631903	767.409664489696	935.587222995515	802.519667560725	494.190220067168	90.910707439431	551.225131009802	647.448918330725	371.558096617352	336.984317192652	617.790243459085	1375.281479142057	508.390291399405	406.448463271873	1109.548342759463	274.873116309270	401.602862140346	35.991125844369	593.397297698726	700.811980406703	785.398531690112	382.930205581863	467.038035927604	859.271052078105	248.224092554436	622.239370257099	712.059852135523	631.797779681410	648.299796386041	682.009477679749	331.811362352669	474.409542677340	215.861457147378	577.919843252611	637.975043322464	64.899822141614	367.789338399894	524.821919797829	384.215392948910	610.108403585139	525.996481054810	663.933867096633	676.750599349710	591.447350935527	965.995242562870	377.123407768789	601.494854042426	599.910833889557	612.997587527956	571.778380559822	486.512211066905	602.060569687728	420.592129680229	993.354819838486	512.782926817509	594.880693876704	979.753986452060	636.507757463912	
